<svg width="154" height="60" viewBox="0 0 154 60" fill="none" xmlns="http://www.w3.org/2000/svg">
<circle cx="30" cy="30" r="30" fill="#FF7D61"/>
<path fill-rule="evenodd" clip-rule="evenodd" d="M40.2803 28.2959C36.9593 28.597 33.6587 29.8509 29.94 32.224C23.7117 36.1985 17.1914 43.3645 14.0081 49.7331C13.7096 50.3305 13.6697 50.4499 13.7512 50.504C13.8911 50.5969 38.3018 50.5924 39.2253 50.4992C44.3097 49.9865 48.1287 47.1652 49.8228 42.6705C50.7263 40.2734 50.8185 37.2886 50.0638 34.8709C49.5734 33.3002 48.8653 32.0984 47.7719 30.9809C46.051 29.2224 44.0738 28.3893 41.4044 28.2982C40.9451 28.2825 40.4393 28.2815 40.2803 28.2959Z" fill="#171B22"/>
<path fill-rule="evenodd" clip-rule="evenodd" d="M13.792 10.3515C13.7313 10.4136 13.7143 13.784 13.7143 25.7869C13.7143 34.9695 13.7376 41.1429 13.7722 41.1429C13.8041 41.1429 14.1119 40.8767 14.4564 40.5512C16.9493 38.1959 20.2135 35.7271 23.3125 33.8532C23.7434 33.5926 24.0869 33.3701 24.0759 33.3588C24.0648 33.3476 22.6683 33.6588 20.9724 34.0506C19.2765 34.4424 17.8617 34.7536 17.8284 34.7422C17.795 34.7308 17.9226 34.6595 18.1118 34.5836C18.301 34.5077 19.4582 34.0017 20.6833 33.4591C24.1958 31.9035 25.5554 31.3048 25.7279 31.2377C25.816 31.2034 25.8743 31.1614 25.8575 31.1443C25.8303 31.1164 19.0925 30.4535 17.8193 30.3533C17.5393 30.3313 17.2603 30.2951 17.1992 30.2728C17.1382 30.2505 18.8996 30.0598 21.1134 29.849C26.3913 29.3463 25.9275 29.3996 25.7749 29.3142C25.7048 29.275 23.8648 28.4574 21.686 27.4973C19.5071 26.5372 17.7314 25.7447 17.74 25.7363C17.7526 25.7238 25.8566 27.5766 26.2717 27.6868C26.335 27.7036 26.3779 27.6922 26.3672 27.6615C26.3564 27.6309 24.8584 26.2668 23.0382 24.6301C21.2179 22.9935 19.7143 21.6389 19.6968 21.6198C19.648 21.5666 19.5604 21.514 23.5712 23.9449C25.6495 25.2045 27.3629 26.2221 27.3786 26.206C27.3942 26.19 26.4418 24.511 25.262 22.475C22.7724 18.1786 22.8465 18.3076 22.8916 18.3499C22.9107 18.3678 24.235 19.9063 25.8345 21.7688C27.4339 23.6314 28.7652 25.1636 28.7929 25.1738C28.8205 25.184 28.7479 24.7591 28.6316 24.2295C28.5154 23.6999 28.0786 21.7135 27.661 19.8152C27.2434 17.9168 26.9083 16.3564 26.9162 16.3476C26.9241 16.3388 27.6982 18.1558 28.6366 20.3852C30.4015 24.5791 30.4505 24.6925 30.4818 24.6561C30.4921 24.6441 30.6825 22.6197 30.905 20.1575C31.1274 17.6952 31.3272 15.7317 31.349 15.7942C31.3708 15.8567 31.4062 16.1422 31.4277 16.4288C31.5256 17.7316 32.1735 24.6259 32.2007 24.6537C32.2175 24.6709 32.2573 24.6148 32.2892 24.5293C32.3334 24.4108 35.0891 17.8593 35.6279 16.5916C35.6812 16.4662 35.7272 16.3956 35.73 16.4346C35.7328 16.4736 35.3071 18.4509 34.7839 20.8285C33.954 24.6 33.811 25.3126 33.9101 25.1824C33.9822 25.0876 39.594 18.5527 39.6935 18.4476C39.7614 18.376 39.6388 18.625 39.4211 19.0011C36.5921 23.8893 35.564 25.6631 35.4057 25.9292C35.2519 26.188 35.2382 26.2389 35.3327 26.2021C35.4451 26.1583 42.2073 22.0748 42.6883 21.7603C42.8195 21.6744 42.927 21.6167 42.927 21.6319C42.927 21.6471 41.3502 23.0867 39.423 24.8311C37.4958 26.5754 35.9285 28.0122 35.9401 28.0241C35.9516 28.0359 36.5189 27.8709 37.2006 27.6574C38.784 27.1615 40.7149 26.6322 42.1853 26.291C44.0577 25.8564 43.8705 25.9417 44.1825 25.3813C45.0304 23.8582 45.4286 22.2775 45.4286 20.4338C45.4286 18.1414 44.7874 16.1659 43.453 14.3465C42.0053 12.3728 39.9485 11.0331 37.4854 10.4594L36.8489 10.3113L25.3593 10.2916C16.3773 10.2762 13.8527 10.2893 13.792 10.3515Z" fill="white"/>
<path d="M82.924 42.432C81.58 42.432 80.404 42.18 79.396 41.676C78.388 41.172 77.572 40.464 76.948 39.552L76.444 42H72.34V16.08H76.948V26.7C77.524 25.908 78.28 25.212 79.216 24.612C80.176 24.012 81.412 23.712 82.924 23.712C84.604 23.712 86.104 24.12 87.424 24.936C88.744 25.752 89.788 26.868 90.556 28.284C91.324 29.7 91.708 31.308 91.708 33.108C91.708 34.908 91.324 36.516 90.556 37.932C89.788 39.324 88.744 40.428 87.424 41.244C86.104 42.036 84.604 42.432 82.924 42.432ZM81.952 38.4C83.416 38.4 84.628 37.908 85.588 36.924C86.548 35.94 87.028 34.668 87.028 33.108C87.028 31.548 86.548 30.264 85.588 29.256C84.628 28.248 83.416 27.744 81.952 27.744C80.464 27.744 79.24 28.248 78.28 29.256C77.344 30.24 76.876 31.512 76.876 33.072C76.876 34.632 77.344 35.916 78.28 36.924C79.24 37.908 80.464 38.4 81.952 38.4ZM98.3084 21.372C97.4684 21.372 96.7724 21.12 96.2204 20.616C95.6924 20.112 95.4284 19.476 95.4284 18.708C95.4284 17.94 95.6924 17.316 96.2204 16.836C96.7724 16.332 97.4684 16.08 98.3084 16.08C99.1484 16.08 99.8324 16.332 100.36 16.836C100.912 17.316 101.188 17.94 101.188 18.708C101.188 19.476 100.912 20.112 100.36 20.616C99.8324 21.12 99.1484 21.372 98.3084 21.372ZM96.0044 42V24.144H100.612V42H96.0044ZM113.99 42.432C112.262 42.432 110.702 42.036 109.31 41.244C107.942 40.452 106.85 39.36 106.034 37.968C105.242 36.552 104.846 34.92 104.846 33.072C104.846 31.224 105.254 29.604 106.07 28.212C106.886 26.796 107.978 25.692 109.346 24.9C110.738 24.108 112.298 23.712 114.026 23.712C115.73 23.712 117.266 24.108 118.634 24.9C120.026 25.692 121.118 26.796 121.91 28.212C122.726 29.604 123.134 31.224 123.134 33.072C123.134 34.92 122.726 36.552 121.91 37.968C121.118 39.36 120.026 40.452 118.634 41.244C117.242 42.036 115.694 42.432 113.99 42.432ZM113.99 38.436C115.19 38.436 116.234 37.992 117.122 37.104C118.01 36.192 118.454 34.848 118.454 33.072C118.454 31.296 118.01 29.964 117.122 29.076C116.234 28.164 115.202 27.708 114.026 27.708C112.802 27.708 111.746 28.164 110.858 29.076C109.994 29.964 109.562 31.296 109.562 33.072C109.562 34.848 109.994 36.192 110.858 37.104C111.746 37.992 112.79 38.436 113.99 38.436ZM133.689 36.672C132.825 36.672 132.021 36.576 131.277 36.384L129.945 37.716C130.353 37.932 130.905 38.112 131.601 38.256C132.297 38.4 133.425 38.544 134.985 38.688C137.361 38.904 139.089 39.468 140.169 40.38C141.249 41.292 141.789 42.552 141.789 44.16C141.789 45.216 141.501 46.212 140.925 47.148C140.349 48.108 139.461 48.876 138.261 49.452C137.061 50.052 135.525 50.352 133.653 50.352C131.109 50.352 129.057 49.872 127.497 48.912C125.937 47.976 125.157 46.56 125.157 44.664C125.157 43.056 125.937 41.664 127.497 40.488C127.017 40.272 126.597 40.044 126.237 39.804C125.901 39.564 125.601 39.312 125.337 39.048V38.22L128.469 34.908C127.077 33.684 126.381 32.112 126.381 30.192C126.381 28.992 126.669 27.9 127.245 26.916C127.845 25.932 128.685 25.152 129.765 24.576C130.845 24 132.153 23.712 133.689 23.712C134.697 23.712 135.633 23.856 136.497 24.144H143.265V26.952L140.205 27.168C140.685 28.08 140.925 29.088 140.925 30.192C140.925 31.392 140.637 32.484 140.061 33.468C139.485 34.452 138.645 35.232 137.541 35.808C136.461 36.384 135.177 36.672 133.689 36.672ZM133.689 33.144C134.625 33.144 135.393 32.892 135.993 32.388C136.617 31.884 136.929 31.164 136.929 30.228C136.929 29.292 136.617 28.572 135.993 28.068C135.393 27.564 134.625 27.312 133.689 27.312C132.705 27.312 131.913 27.564 131.313 28.068C130.713 28.572 130.413 29.292 130.413 30.228C130.413 31.164 130.713 31.884 131.313 32.388C131.913 32.892 132.705 33.144 133.689 33.144ZM129.369 44.196C129.369 45.084 129.777 45.744 130.593 46.176C131.433 46.632 132.453 46.86 133.653 46.86C134.805 46.86 135.741 46.62 136.461 46.14C137.181 45.684 137.541 45.06 137.541 44.268C137.541 43.62 137.301 43.08 136.821 42.648C136.365 42.216 135.441 41.952 134.049 41.856C133.065 41.784 132.153 41.676 131.313 41.532C130.617 41.916 130.113 42.336 129.801 42.792C129.513 43.248 129.369 43.716 129.369 44.196ZM149.109 21.372C148.269 21.372 147.573 21.12 147.021 20.616C146.493 20.112 146.229 19.476 146.229 18.708C146.229 17.94 146.493 17.316 147.021 16.836C147.573 16.332 148.269 16.08 149.109 16.08C149.949 16.08 150.633 16.332 151.161 16.836C151.713 17.316 151.989 17.94 151.989 18.708C151.989 19.476 151.713 20.112 151.161 20.616C150.633 21.12 149.949 21.372 149.109 21.372ZM146.805 42V24.144H151.413V42H146.805Z" fill="white"/>
</svg>
